# xmcd CD database file
#
# Track frame offsets:
#	150
#	18026
#	36702
#	57529
#	78412
#	99992
#	121447
#	141528
#	162360
#	175642
#	195181
#	212861
#
# Disc length: 3189 seconds
#
# Revision: 1
# Processed by: cddbd v1.5.1PL2 Copyright (c) Steve Scherf et al.
# Submitted via: CDex 1.51
#
DISCID=a40c730c
DTITLE=Jessi Colter - Out Of The Ashes
DYEAR=2006
DGENRE=Country
TTITLE0=His Eye Is On The Sparrow
TTITLE1=You Can Pick 'em
TTITLE2=Starman
TTITLE3=The Phoenix Rises
TTITLE4=Out Of The Rain (Featuring Waylon Jennings And Tony Joe White)
TTITLE5=Velvet And Steel
TTITLE6=Rainy Day Women #12 and 35
TTITLE7=You Took Me By Surprise
TTITLE8=So Many Things
TTITLE9=The Canyon
TTITLE10=Never Got Over You
TTITLE11=Please Carry Me Home (Featuring Shooter Jennings)
EXTD=YEAR: 2006
EXTT0=
EXTT1=
EXTT2=
EXTT3=
EXTT4=
EXTT5=
EXTT6=
EXTT7=
EXTT8=
EXTT9=
EXTT10=
EXTT11=
PLAYORDER=
